<?xml version="1.0" encoding="UTF-8"?>
<!DOCTYPE svg PUBLIC "-//W3C//DTD SVG 1.1//EN" "http://www.w3.org/Graphics/SVG/1.1/DTD/svg11.dtd">
<svg xmlns="http://www.w3.org/2000/svg" version="1.1" width="1024px" height="1024px" style="shape-rendering:geometricPrecision; text-rendering:geometricPrecision; image-rendering:optimizeQuality; fill-rule:evenodd; clip-rule:evenodd" xmlns:xlink="http://www.w3.org/1999/xlink">
<g><path style="opacity:0.976" fill="#000000" d="M -0.5,-0.5 C 340.833,-0.5 682.167,-0.5 1023.5,-0.5C 1023.5,340.833 1023.5,682.167 1023.5,1023.5C 682.167,1023.5 340.833,1023.5 -0.5,1023.5C -0.5,682.167 -0.5,340.833 -0.5,-0.5 Z M 505.5,70.5 C 523.388,67.5351 538.222,72.8684 550,86.5C 552.861,90.8878 555.194,95.5545 557,100.5C 562.003,125.238 553.17,142.738 530.5,153C 529.299,153.903 528.465,155.069 528,156.5C 527.333,212.5 527.333,268.5 528,324.5C 528.308,325.308 528.808,325.975 529.5,326.5C 543.455,327.649 557.455,327.816 571.5,327C 572.308,326.692 572.975,326.192 573.5,325.5C 574.323,303.543 574.823,281.543 575,259.5C 576.33,241.511 581.663,224.845 591,209.5C 600.5,197.333 610,185.167 619.5,173C 612.063,160.23 610.563,146.73 615,132.5C 626.872,109.49 645.372,101.657 670.5,109C 693.397,120.308 701.564,138.475 695,163.5C 682.036,190.818 661.703,198.485 634,186.5C 633.25,187.126 632.416,187.626 631.5,188C 622.546,199.41 613.712,210.91 605,222.5C 599.539,232.55 595.872,243.217 594,254.5C 592.486,277.813 592.152,301.146 593,324.5C 593.308,325.308 593.808,325.975 594.5,326.5C 610.789,327.651 627.122,327.818 643.5,327C 644.308,326.692 644.975,326.192 645.5,325.5C 646.694,309.19 647.861,292.857 649,276.5C 654.118,262.381 663.951,253.547 678.5,250C 695.833,249.667 713.167,249.333 730.5,249C 731.416,248.626 732.25,248.126 733,247.5C 737.474,232.36 747.307,222.526 762.5,218C 786.383,213.358 803.55,221.858 814,243.5C 820.908,265.442 815.075,282.942 796.5,296C 775.699,305.946 757.199,302.779 741,286.5C 737.53,281.226 734.864,275.56 733,269.5C 732.25,268.874 731.416,268.374 730.5,268C 714.167,267.333 697.833,267.333 681.5,268C 673.471,271.359 668.304,277.192 666,285.5C 665.058,300.161 664.725,314.828 665,329.5C 665.374,330.416 665.874,331.25 666.5,332C 690.073,340.907 704.239,357.74 709,382.5C 709.179,401.21 709.679,419.877 710.5,438.5C 711.025,439.192 711.692,439.692 712.5,440C 733.833,440.667 755.167,440.667 776.5,440C 788.418,438.139 799.751,434.472 810.5,429C 821.954,420.547 833.121,411.714 844,402.5C 844.374,401.584 844.874,400.75 845.5,400C 835.491,380.131 838.158,362.131 853.5,346C 867.246,336.146 882.246,333.813 898.5,339C 915.541,346.57 923.875,359.736 923.5,378.5C 921.038,409.246 904.371,423.413 873.5,421C 868.386,419.858 863.553,418.024 859,415.5C 847.902,423.591 837.068,432.091 826.5,441C 812.897,450.299 797.897,455.965 781.5,458C 760.5,458.333 739.5,458.667 718.5,459C 715.344,458.947 712.844,460.114 711,462.5C 710.333,477.833 710.333,493.167 711,508.5C 711.308,509.308 711.808,509.975 712.5,510.5C 766.459,511.662 820.459,511.829 874.5,511C 875.667,510.5 876.5,509.667 877,508.5C 882.345,487.155 896.012,476.155 918,475.5C 945.078,477.078 959.244,491.411 960.5,518.5C 960.01,539.632 949.677,553.466 929.5,560C 912.362,563.73 897.862,559.23 886,546.5C 883.197,540.72 880.031,535.22 876.5,530C 822.175,530.24 767.841,530.573 713.5,531C 712.692,531.308 712.025,531.808 711.5,532.5C 710.351,546.455 710.184,560.455 711,574.5C 711.308,575.308 711.808,575.975 712.5,576.5C 731.123,577.321 749.79,577.821 768.5,578C 792.225,578.537 813.559,585.87 832.5,600C 840.833,607 849.167,614 857.5,621C 859.167,621.667 860.833,621.667 862.5,621C 881.574,612.64 898.741,615.473 914,629.5C 922.847,641.054 925.847,654.054 923,668.5C 914.044,694.899 895.877,705.066 868.5,699C 850.269,692.25 840.602,679.084 839.5,659.5C 839.428,651.419 841.428,643.919 845.5,637C 844.874,636.25 844.374,635.416 844,634.5C 832.788,624.953 821.288,615.786 809.5,607C 799.344,602.059 788.677,598.726 777.5,597C 755.833,596.333 734.167,596.333 712.5,597C 711.692,597.308 711.025,597.808 710.5,598.5C 709.679,617.79 709.179,637.123 709,656.5C 704.125,680.372 690.292,696.539 667.5,705C 666.299,705.903 665.465,707.069 665,708.5C 665.053,723.159 665.387,737.826 666,752.5C 668.003,760.502 672.836,766.002 680.5,769C 697.121,770.592 713.788,770.925 730.5,770C 731.308,769.692 731.975,769.192 732.5,768.5C 736.034,753.468 745.034,743.301 759.5,738C 784.475,731.409 802.641,739.576 814,762.5C 820.106,781.65 815.939,798.15 801.5,812C 784.601,823.853 767.268,824.519 749.5,814C 741.573,807.994 736.24,800.16 733.5,790.5C 732.975,789.808 732.308,789.308 731.5,789C 714.167,788.667 696.833,788.333 679.5,788C 663.551,784.718 653.384,775.218 649,759.5C 647.828,744.189 646.828,728.855 646,713.5C 645.692,712.692 645.192,712.025 644.5,711.5C 628.544,710.349 612.544,710.182 596.5,711C 595.692,711.308 595.025,711.808 594.5,712.5C 593.344,735.124 593.178,757.79 594,780.5C 595.668,792.171 599.335,803.171 605,813.5C 613.833,825 622.667,836.5 631.5,848C 632.416,848.374 633.25,848.874 634,849.5C 654.354,840.256 672.354,843.59 688,859.5C 696.553,872.376 698.886,886.376 695,901.5C 682.656,927.753 662.822,935.92 635.5,926C 617.721,915.605 610.221,900.105 613,879.5C 613.673,874.481 615.34,869.814 618,865.5C 618.667,863.833 618.667,862.167 618,860.5C 604.005,845.837 592.339,829.504 583,811.5C 578.279,797.894 575.612,783.894 575,769.5C 574.821,750.456 574.321,731.456 573.5,712.5C 572.975,711.808 572.308,711.308 571.5,711C 556.167,710.333 540.833,710.333 525.5,711C 524.692,711.308 524.025,711.808 523.5,712.5C 522.338,767.792 522.171,823.126 523,878.5C 523.374,879.416 523.874,880.25 524.5,881C 546.428,886.693 557.428,900.86 557.5,923.5C 556.336,950.331 542.336,964.664 515.5,966.5C 488.873,963.874 474.873,949.207 473.5,922.5C 473.956,903.403 482.956,890.236 500.5,883C 501.701,882.097 502.535,880.931 503,879.5C 503.667,824.167 503.667,768.833 503,713.5C 502.692,712.692 502.192,712.025 501.5,711.5C 487.212,710.351 472.878,710.184 458.5,711C 457.692,711.308 457.025,711.808 456.5,712.5C 455.678,733.123 455.178,753.79 455,774.5C 454.295,793.61 448.962,811.277 439,827.5C 429.833,839.333 420.667,851.167 411.5,863C 418.085,876.325 419.251,890.159 415,904.5C 403.379,926.393 385.545,934.226 361.5,928C 346.174,922.344 337.008,911.51 334,895.5C 330.728,872.534 339.561,856.367 360.5,847C 365.357,845.329 370.357,844.495 375.5,844.5C 383.49,844.932 391.156,846.432 398.5,849C 407.333,837.5 416.167,826 425,814.5C 430.459,804.457 434.125,793.791 436,782.5C 436.667,759.5 436.667,736.5 436,713.5C 435.692,712.692 435.192,712.025 434.5,711.5C 418.167,710.167 401.833,710.167 385.5,711.5C 384.808,712.025 384.308,712.692 384,713.5C 383.513,728.508 382.846,743.508 382,758.5C 378.076,774.757 367.91,784.59 351.5,788C 333.833,788.333 316.167,788.667 298.5,789C 297.584,789.374 296.75,789.874 296,790.5C 288.548,812.816 273.048,822.983 249.5,821C 230.985,817.486 219.152,806.653 214,788.5C 210.042,763.232 219.875,746.065 243.5,737C 260.72,732.853 275.553,737.02 288,749.5C 292.171,754.844 295.005,760.844 296.5,767.5C 297.025,768.192 297.692,768.692 298.5,769C 315.833,769.667 333.167,769.667 350.5,769C 357,766.5 361.5,762 364,755.5C 365.333,739.518 365.666,723.518 365,707.5C 364.626,706.584 364.126,705.75 363.5,705C 341.711,696.268 328.211,680.435 323,657.5C 322.667,638.167 322.333,618.833 322,599.5C 321.692,598.692 321.192,598.025 320.5,597.5C 298.876,596.345 277.21,596.178 255.5,597C 243.046,598.818 231.379,602.818 220.5,609C 208.535,617.638 197.202,626.971 186.5,637C 188.413,640.661 189.913,644.494 191,648.5C 194.601,665.614 190.101,680.114 177.5,692C 159.174,704.612 140.841,704.612 122.5,692C 108.258,677.698 104.425,660.865 111,641.5C 121.101,622.365 136.934,614.199 158.5,617C 163.136,617.879 167.469,619.545 171.5,622C 172.833,622.667 174.167,622.667 175.5,622C 190.199,606.485 207.199,594.151 226.5,585C 232.332,582.723 238.332,581.056 244.5,580C 269.841,578.882 295.174,578.049 320.5,577.5C 321.192,576.975 321.692,576.308 322,575.5C 322.818,559.456 322.651,543.456 321.5,527.5C 320.975,526.808 320.308,526.308 319.5,526C 265.5,525.333 211.5,525.333 157.5,526C 156.584,526.374 155.75,526.874 155,527.5C 149.744,548.432 136.411,559.432 115,560.5C 91.6917,559.858 77.3584,548.192 72,525.5C 69.1249,503.41 77.6249,487.577 97.5,478C 125.066,470.203 144.233,479.37 155,505.5C 155.75,506.126 156.584,506.626 157.5,507C 211.5,507.667 265.5,507.667 319.5,507C 320.308,506.692 320.975,506.192 321.5,505.5C 322.649,491.212 322.816,476.878 322,462.5C 321.626,461.584 321.126,460.75 320.5,460C 297.921,458.687 275.255,458.021 252.5,458C 236.187,456.343 221.187,451.009 207.5,442C 196.467,433.812 185.8,425.146 175.5,416C 174.167,415.333 172.833,415.333 171.5,416C 149.333,426.582 130.499,422.415 115,403.5C 108.807,392.625 106.807,380.958 109,368.5C 112.821,351.346 123.321,340.846 140.5,337C 177.165,334.665 193.998,351.832 191,388.5C 189.913,392.506 188.413,396.339 186.5,400C 187.126,400.75 187.626,401.584 188,402.5C 199.5,411.333 211,420.167 222.5,429C 233.428,434.983 245.095,438.649 257.5,440C 278.167,440.667 298.833,440.667 319.5,440C 320.308,439.692 320.975,439.192 321.5,438.5C 322.048,417.834 322.881,397.167 324,376.5C 327.919,363.248 335.086,352.081 345.5,343C 352.453,338.945 359.286,334.778 366,330.5C 365.877,315.178 365.543,299.845 365,284.5C 362.229,276.73 357.063,271.23 349.5,268C 332.5,267.333 315.5,267.333 298.5,268C 297.692,268.308 297.025,268.808 296.5,269.5C 288.545,293.593 271.878,304.093 246.5,301C 231.038,297.539 220.538,288.372 215,273.5C 208.96,250.776 215.793,233.276 235.5,221C 255.767,212.587 273.6,216.087 289,231.5C 292.194,236.554 294.861,241.888 297,247.5C 297.75,248.126 298.584,248.626 299.5,249C 317.167,249.333 334.833,249.667 352.5,250C 367.049,253.547 376.882,262.381 382,276.5C 383.157,292.474 383.824,308.474 384,324.5C 384.308,325.308 384.808,325.975 385.5,326.5C 401.789,327.651 418.122,327.818 434.5,327C 435.308,326.692 435.975,326.192 436.5,325.5C 437.13,322.053 437.463,318.553 437.5,315C 436.789,294.506 436.289,274.006 436,253.5C 434.128,242.217 430.461,231.55 425,221.5C 416.528,210.06 407.695,198.894 398.5,188C 397.584,187.626 396.75,187.126 396,186.5C 375.634,195.943 357.634,192.61 342,176.5C 333.088,162.842 331.088,148.175 336,132.5C 348.844,108.321 368.344,100.821 394.5,110C 413.999,121.185 421.499,138.018 417,160.5C 415.296,164.741 413.462,168.907 411.5,173C 421.717,185.549 431.55,198.382 441,211.5C 449.712,227.011 454.378,243.678 455,261.5C 455.178,282.876 455.678,304.21 456.5,325.5C 457.025,326.192 457.692,326.692 458.5,327C 474.5,327.667 490.5,327.667 506.5,327C 507.308,326.692 507.975,326.192 508.5,325.5C 509.662,269.541 509.829,213.541 509,157.5C 508.626,156.584 508.126,155.75 507.5,155C 485.065,149.906 473.732,135.906 473.5,113C 473.712,90.9552 484.379,76.7885 505.5,70.5 Z M 402.5,401.5 C 479.249,401.006 555.916,401.506 632.5,403C 634.041,404.579 635.208,406.413 636,408.5C 636.667,482.167 636.667,555.833 636,629.5C 635.214,632.583 633.381,634.749 630.5,636C 622.833,636.333 615.167,636.667 607.5,637C 537.834,637.173 468.167,637.006 398.5,636.5C 398.509,634.692 398.009,633.025 397,631.5C 396.333,556.5 396.333,481.5 397,406.5C 398.352,404.251 400.185,402.584 402.5,401.5 Z"/></g>
<g><path style="opacity:0.862" fill="#000000" d="M 510.5,88.5 C 526.039,87.5452 535.872,94.5452 540,109.5C 539.826,129.007 529.993,138.173 510.5,137C 492.891,130.185 487.725,118.018 495,100.5C 498.659,94.4349 503.826,90.4349 510.5,88.5 Z"/></g>
<g><path style="opacity:0.86" fill="#000000" d="M 371.5,124.5 C 395.141,126.317 403.641,138.65 397,161.5C 382.975,177.429 368.975,177.429 355,161.5C 348.058,143.462 353.558,131.129 371.5,124.5 Z"/></g>
<g><path style="opacity:0.861" fill="#000000" d="M 649.5,124.5 C 669.999,124.829 679.499,135.163 678,155.5C 670.644,172.288 658.478,177.121 641.5,170C 627.253,156.632 626.919,142.966 640.5,129C 643.437,127.199 646.437,125.699 649.5,124.5 Z"/></g>
<g><path style="opacity:0.861" fill="#000000" d="M 250.5,234.5 C 264.963,233.476 274.463,239.81 279,253.5C 280.802,268.407 274.635,278.24 260.5,283C 246.21,284.939 236.71,279.106 232,265.5C 229.999,250.154 236.165,239.821 250.5,234.5 Z"/></g>
<g><path style="opacity:0.864" fill="#000000" d="M 769.5,234.5 C 784.523,234.025 794.023,241.025 798,255.5C 799.426,269.746 793.259,278.912 779.5,283C 763.526,284.369 753.692,277.203 750,261.5C 750.11,247.889 756.61,238.889 769.5,234.5 Z"/></g>
<g><path style="opacity:0.93" fill="#000000" d="M 382.5,346.5 C 471.167,346.333 559.834,346.5 648.5,347C 667.174,350.005 680.341,360.171 688,377.5C 689.616,381.347 690.616,385.347 691,389.5C 691.667,475.833 691.667,562.167 691,648.5C 686.957,672.21 673.124,686.377 649.5,691C 560.167,691.667 470.833,691.667 381.5,691C 365.058,687.564 352.891,678.397 345,663.5C 343.039,658.323 341.706,652.99 341,647.5C 340.333,561.833 340.333,476.167 341,390.5C 345.484,366.853 359.317,352.187 382.5,346.5 Z M 402.5,401.5 C 400.185,402.584 398.352,404.251 397,406.5C 396.333,481.5 396.333,556.5 397,631.5C 398.009,633.025 398.509,634.692 398.5,636.5C 468.167,637.006 537.834,637.173 607.5,637C 615.167,636.667 622.833,636.333 630.5,636C 633.381,634.749 635.214,632.583 636,629.5C 636.667,555.833 636.667,482.167 636,408.5C 635.208,406.413 634.041,404.579 632.5,403C 555.916,401.506 479.249,401.006 402.5,401.5 Z"/></g>
<g><path style="opacity:0.861" fill="#000000" d="M 145.5,354.5 C 164.435,354.269 173.935,363.602 174,382.5C 167.558,401.976 155.058,407.476 136.5,399C 125.877,389.548 123.711,378.381 130,365.5C 134.003,359.967 139.17,356.3 145.5,354.5 Z"/></g>
<g><path style="opacity:0.864" fill="#000000" d="M 876.5,354.5 C 892.031,353.535 901.864,360.535 906,375.5C 906.464,390.044 899.631,399.21 885.5,403C 870.988,403.504 861.822,396.671 858,382.5C 857.436,368.609 863.602,359.275 876.5,354.5 Z"/></g>
<g><path style="opacity:0.862" fill="#000000" d="M 108.5,493.5 C 127.959,492.794 137.792,502.127 138,521.5C 132.36,540.721 120.194,546.555 101.5,539C 85.5679,524.923 85.5679,510.923 101.5,497C 103.925,495.787 106.259,494.621 108.5,493.5 Z"/></g>
<g><path style="opacity:0.861" fill="#000000" d="M 912.5,493.5 C 927.328,492.16 937.161,498.493 942,512.5C 944.316,527.709 938.149,537.542 923.5,542C 909.222,543.944 899.722,538.111 895,524.5C 892.555,509.382 898.388,499.049 912.5,493.5 Z"/></g>
<g><path style="opacity:0.455" fill="#000000" d="M 426.5,519.5 C 428.898,520.882 429.065,522.549 427,524.5C 426.506,522.866 426.34,521.199 426.5,519.5 Z"/></g>
<g><path style="opacity:0.861" fill="#000000" d="M 878.5,633.5 C 897.959,634.79 906.793,645.124 905,664.5C 901.576,675.921 893.909,682.254 882,683.5C 867.597,681.264 859.43,672.93 857.5,658.5C 859.126,645.548 866.126,637.215 878.5,633.5 Z"/></g>
<g><path style="opacity:0.861" fill="#000000" d="M 143.5,634.5 C 159.509,633.008 169.676,640.008 174,655.5C 174.566,669.611 168.066,678.777 154.5,683C 140.338,684.174 131.171,678.007 127,664.5C 124.677,650.032 130.177,640.032 143.5,634.5 Z"/></g>
<g><path style="opacity:0.859" fill="#000000" d="M 249.5,754.5 C 264.67,752.663 274.503,758.996 279,773.5C 280.955,787.754 275.121,797.254 261.5,802C 246.291,804.316 236.458,798.149 232,783.5C 230.421,772.904 233.921,764.404 242.5,758C 244.925,756.787 247.259,755.621 249.5,754.5 Z"/></g>
<g><path style="opacity:0.863" fill="#000000" d="M 767.5,754.5 C 783.594,752.288 793.76,758.955 798,774.5C 799.526,788.314 793.693,797.481 780.5,802C 763.171,803.514 752.838,795.681 749.5,778.5C 750.637,766.714 756.637,758.714 767.5,754.5 Z"/></g>
<g><path style="opacity:0.861" fill="#000000" d="M 372.5,862.5 C 385.638,862.801 394.471,869.135 399,881.5C 400.656,902.177 391.156,912.01 370.5,911C 357.299,907.102 351.132,898.269 352,884.5C 354.533,873.135 361.366,865.801 372.5,862.5 Z"/></g>
<g><path style="opacity:0.86" fill="#000000" d="M 651.5,862.5 C 670.483,863.644 679.316,873.644 678,892.5C 673.542,907.149 663.709,913.316 648.5,911C 631.305,903.75 626.472,891.584 634,874.5C 636.833,871.667 639.667,868.833 642.5,866C 645.571,864.704 648.571,863.538 651.5,862.5 Z"/></g>
<g><path style="opacity:0.862" fill="#000000" d="M 511.5,898.5 C 529.831,898.998 539.331,908.332 540,926.5C 534.424,944.705 522.59,950.871 504.5,945C 491.971,936.08 488.805,924.58 495,910.5C 499.327,904.642 504.827,900.642 511.5,898.5 Z"/></g>
</svg>
